<svg xmlns="http://www.w3.org/2000/svg" viewBox="0 0 400 400" width="400" height="400">
  <defs>
    <linearGradient id="ps-bg" x1="0" y1="0" x2="1" y2="1">
      <stop offset="0%" stop-color="#F7F3E9"/>
      <stop offset="100%" stop-color="#D8D3C6"/>
    </linearGradient>
  </defs>
  <rect width="400" height="400" fill="url(#ps-bg)"/>
  <g fill="#17161A">
    <rect x="60" y="180" width="10" height="40" rx="5"/>
    <rect x="84" y="150" width="10" height="100" rx="5"/>
    <rect x="108" y="110" width="10" height="180" rx="5"/>
    <rect x="132" y="160" width="10" height="80" rx="5"/>
    <rect x="156" y="126" width="10" height="148" rx="5"/>
    <rect x="180" y="90" width="10" height="220" rx="5" fill="#E23A34"/>
    <rect x="204" y="140" width="10" height="120" rx="5"/>
    <rect x="228" y="170" width="10" height="60" rx="5"/>
    <rect x="252" y="120" width="10" height="160" rx="5"/>
    <rect x="276" y="158" width="10" height="84" rx="5"/>
    <rect x="300" y="184" width="10" height="32" rx="5"/>
    <rect x="324" y="168" width="10" height="64" rx="5"/>
  </g>
</svg>
